<svg width="25" height="24" viewBox="0 0 25 24" fill="none" xmlns="http://www.w3.org/2000/svg">
<g clip-path="url(#clip0_226_11928)">
<path d="M21.1896 5.79297V10.7585H3.8554C2.68851 10.7585 1.74133 9.64621 1.74133 8.27573C1.74133 6.90524 2.68851 5.79297 3.8554 5.79297H21.1896Z" fill="#F5EFCA"/>
<path d="M22.0172 11.172C22.0159 11.6285 21.6462 11.9982 21.1897 11.9995H4.22414C2.16735 11.9995 0.5 10.3322 0.5 8.27541C0.5 6.21862 2.16735 4.55127 4.22414 4.55127H21.1897C21.6467 4.55127 22.0172 4.92179 22.0172 5.37886C22.0172 5.83592 21.6467 6.20644 21.1897 6.20644H4.22414C3.08148 6.20644 2.15517 7.13275 2.15517 8.27541C2.15517 9.41807 3.08148 10.3444 4.22414 10.3444H21.1897C21.6462 10.3457 22.0159 10.7155 22.0172 11.172Z" fill="#F29C1F"/>
<path d="M23.6724 12H2.98274C2.52567 12 2.15515 12.3705 2.15515 12.8276V16.9655C2.15515 17.4226 2.52567 17.7931 2.98274 17.7931H23.6724C24.1295 17.7931 24.5 17.4226 24.5 16.9655V12.8276C24.5 12.3705 24.1295 12 23.6724 12Z" fill="#7D6599"/>
<path d="M22.0172 17.793H1.32759C0.870523 17.793 0.5 18.1635 0.5 18.6206V22.7585C0.5 23.2155 0.870523 23.5861 1.32759 23.5861H22.0172C22.4743 23.5861 22.8448 23.2155 22.8448 22.7585V18.6206C22.8448 18.1635 22.4743 17.793 22.0172 17.793Z" fill="#E64C3C"/>
<path d="M22.0172 0.413574H1.32759C0.870523 0.413574 0.5 0.784097 0.5 1.24116V3.72392C0.5 4.18098 0.870523 4.55151 1.32759 4.55151H22.0172C22.4743 4.55151 22.8448 4.18098 22.8448 3.72392V1.24116C22.8448 0.784097 22.4743 0.413574 22.0172 0.413574Z" fill="#3B97D3"/>
<path d="M3.8103 0.413574H5.46548V4.55151H3.8103V0.413574Z" fill="#67B9CC"/>
<path d="M17.8793 0.413574H19.5344V4.55151H17.8793V0.413574Z" fill="#67B9CC"/>
<path d="M17.8793 13.6548H8.77585C8.54732 13.6548 8.36206 13.84 8.36206 14.0686V15.7238C8.36206 15.9523 8.54732 16.1375 8.77585 16.1375H17.8793C18.1078 16.1375 18.2931 15.9523 18.2931 15.7238V14.0686C18.2931 13.84 18.1078 13.6548 17.8793 13.6548Z" fill="#9FC9D3"/>
<path d="M20.3621 12H21.1896V17.7931H20.3621V12Z" fill="#B49ACA"/>
<path d="M5.46558 12H6.29316V17.7931H5.46558V12Z" fill="#B49ACA"/>
<path d="M11.6724 21.931C13.7292 21.931 15.3965 21.3752 15.3965 20.6896C15.3965 20.004 13.7292 19.4482 11.6724 19.4482C9.6156 19.4482 7.94824 20.004 7.94824 20.6896C7.94824 21.3752 9.6156 21.931 11.6724 21.931Z" fill="#F5EFCA"/>
<path d="M2.98279 17.793H4.63796V23.5861H2.98279V17.793Z" fill="#F29C1F"/>
<path d="M18.7069 17.793H20.3621V23.5861H18.7069V17.793Z" fill="#F29C1F"/>
</g>
<defs>
<clipPath id="clip0_226_11928">
<rect width="24" height="24" fill="white" transform="translate(0.5)"/>
</clipPath>
</defs>
</svg>
