<svg width="20" height="20" viewBox="0 0 20 20" fill="none" xmlns="http://www.w3.org/2000/svg">
<g clip-path="url(#clip0_226_11860)">
<path d="M17.7078 3.32375C17.7078 2.5948 17.1168 2.00391 16.3879 2.00391H15.5287C14.9972 2.00391 4.49109 2.00391 4.13996 2.00391C3.81828 2.00391 1.7373 2.00391 1.31988 2.00391C0.591016 2.00391 0 2.59484 0 3.32375V18.3916C0 18.7689 0.158555 19.1089 0.412344 19.3495H16.3879V19.7115H18.6998C19.2679 19.7115 19.7521 19.3526 19.9382 18.8492C20.0924 18.4416 20.1469 19.2209 17.7078 3.32375Z" fill="#BABABA"/>
<path d="M18.5137 18.3917V8.57684L17.7077 3.32375C17.7077 2.5948 17.1168 2.00391 16.3878 2.00391C15.9557 2.00391 5.54775 2.00391 4.94595 2.00391H4.13997H3.81759C3.07103 2.00391 3.32216 2.00391 2.12591 2.00391C1.39705 2.00391 0.80603 2.5948 0.80603 3.32375V18.3916C0.80603 18.7689 0.964585 19.1089 1.21837 19.3495H16.3879V19.7115H17.1939C17.9227 19.7116 18.5137 19.1207 18.5137 18.3917Z" fill="#A8A8A8"/>
<path d="M16.3878 2.00391C15.926 2.00391 4.90059 2.00391 4.13996 2.00391C3.68457 2.00391 1.62777 2.00391 1.31988 2.00391C0.591016 2.00391 0 2.59484 0 3.32375V18.3916C0 19.1206 0.591016 19.7115 1.31988 19.7115H16.3878C17.1168 19.7115 17.7077 19.1206 17.7077 18.3916V3.32375C17.7078 2.59484 17.1168 2.00391 16.3878 2.00391Z" fill="#E6E6E6"/>
<path d="M0.805976 18.3917V3.32375C0.805976 2.5948 1.39699 2.00391 2.12586 2.00391C1.67156 2.00391 1.77562 2.00391 1.31988 2.00391C0.591016 2.00391 0 2.59484 0 3.32375V18.3916C0 19.1206 0.591016 19.7115 1.31988 19.7115H2.12586C1.39703 19.7116 0.805976 19.1207 0.805976 18.3917Z" fill="#CCCBCA"/>
<path d="M16.3878 2.00391C15.8635 2.00391 5.01516 2.00391 4.13996 2.00391C1.01508 2.00391 4.24504 2.00391 1.31988 2.00391C0.591016 2.00391 0 2.59484 0 3.32375V6.71422H17.7078V3.32375C17.7078 2.59484 17.1168 2.00391 16.3878 2.00391Z" fill="#EA473B"/>
<path d="M0.805976 3.32375C0.805976 2.5948 1.39699 2.00391 2.12586 2.00391C1.67156 2.00391 1.77562 2.00391 1.31988 2.00391C0.591016 2.00391 0 2.59484 0 3.32375V6.71422H0.805976V3.32375Z" fill="#D63322"/>
<path d="M14.1342 3.18408V3.45885C14.1342 3.72596 13.9177 3.74096 13.6506 3.74096H13.4894C13.2223 3.74096 13.0058 3.72596 13.0058 3.45885V3.18412C12.7501 3.36256 12.5826 3.65873 12.5826 3.9942C12.5826 4.53951 13.0247 4.98154 13.57 4.98154C14.5371 4.9815 14.9212 3.7333 14.1342 3.18408Z" fill="#414356"/>
<path d="M9.13701 3.18408V3.45885C9.13701 3.72596 8.92053 3.70064 8.65342 3.70064H8.49221C8.22514 3.70064 8.00861 3.72596 8.00861 3.45885V3.18412C7.75291 3.36256 7.58545 3.65873 7.58545 3.9942C7.58545 4.53951 8.02752 4.98154 8.57279 4.98154C9.11811 4.98154 9.56014 4.53951 9.56014 3.9942C9.56014 3.65873 9.39268 3.36252 9.13701 3.18408Z" fill="#414356"/>
<path d="M4.13991 3.18408V3.45885C4.13991 3.77025 3.84683 3.74096 3.49511 3.74096C3.22804 3.74096 3.01152 3.72596 3.01152 3.45885V3.18412C2.22374 3.73389 2.60988 4.98154 3.5757 4.98154C4.12101 4.98154 4.56304 4.53951 4.56304 3.9942C4.56304 3.65873 4.39558 3.36252 4.13991 3.18408Z" fill="#414356"/>
<path d="M13.429 3.99416C13.429 3.97545 13.4297 3.95693 13.4307 3.9385C13.1914 3.90947 13.0058 3.706 13.0058 3.45881V3.18408C12.7501 3.36252 12.5826 3.65869 12.5826 3.99416C12.5826 4.53947 13.0247 4.9815 13.57 4.9815C13.7214 4.9815 13.8649 4.94732 13.9931 4.88635C13.6596 4.72787 13.429 4.38799 13.429 3.99416Z" fill="#2F3242"/>
<path d="M8.4319 3.99416C8.4319 3.97545 8.4326 3.95693 8.43362 3.9385C8.19428 3.90947 8.00874 3.706 8.00874 3.45881V3.18408C7.75303 3.36252 7.58557 3.65869 7.58557 3.99416C7.58557 4.53947 8.02764 4.9815 8.57291 4.9815C8.72436 4.9815 8.8678 4.94732 8.99608 4.88635C8.66252 4.72787 8.4319 4.38799 8.4319 3.99416Z" fill="#2F3242"/>
<path d="M3.43643 3.9385C3.19709 3.90947 3.01154 3.706 3.01154 3.45881V3.18408C2.75584 3.36252 2.58838 3.65869 2.58838 3.99416C2.58838 4.72135 3.34791 5.19568 3.99885 4.88635C3.64518 4.71826 3.41354 4.35088 3.43643 3.9385Z" fill="#2F3242"/>
<path d="M17.7078 6.71436H0V7.84275H17.7078V6.71436Z" fill="#F77C79"/>
<path d="M0.805977 6.71436H0V7.84275H0.805977V6.71436Z" fill="#DD6464"/>
<path d="M3.65628 0.288574C3.92339 0.288574 4.13987 0.505098 4.13987 0.772168V3.45881C4.13987 3.72592 3.92339 3.9424 3.65628 3.9424H3.49507C3.228 3.9424 3.01147 3.72592 3.01147 3.45881V0.772168C3.01147 0.505098 3.228 0.288574 3.49507 0.288574H3.65628Z" fill="#585A60"/>
<path d="M8.65347 0.288574C8.92058 0.288574 9.13707 0.505098 9.13707 0.772168V3.45881C9.13707 3.72592 8.92058 3.9424 8.65347 3.9424H8.49226C8.22519 3.9424 8.00867 3.72592 8.00867 3.45881V0.772168C8.00867 0.505098 8.22519 0.288574 8.49226 0.288574H8.65347Z" fill="#585A60"/>
<path d="M13.6507 0.288574C13.9178 0.288574 14.1343 0.505098 14.1343 0.772168V3.45881C14.1343 3.72592 13.9178 3.9424 13.6507 3.9424H13.4895C13.2224 3.9424 13.0059 3.72592 13.0059 3.45881V0.772168C13.0059 0.505098 13.2224 0.288574 13.4895 0.288574H13.6507Z" fill="#585A60"/>
<path d="M3.65628 0.288574C3.92339 0.288574 4.13987 0.505098 4.13987 0.772168V3.45881C4.13987 3.72592 3.92339 3.9424 3.65628 3.9424H3.49507C3.228 3.9424 3.01147 3.72592 3.01147 3.45881V0.772168C3.01147 0.505098 3.228 0.288574 3.49507 0.288574H3.65628Z" fill="#585A60"/>
<path d="M8.65347 0.288574C8.92058 0.288574 9.13707 0.505098 9.13707 0.772168V3.45881C9.13707 3.72592 8.92058 3.9424 8.65347 3.9424H8.49226C8.22519 3.9424 8.00867 3.72592 8.00867 3.45881V0.772168C8.00867 0.505098 8.22519 0.288574 8.49226 0.288574H8.65347Z" fill="#585A60"/>
<path d="M13.6507 0.288574C13.9178 0.288574 14.1343 0.505098 14.1343 0.772168V3.45881C14.1343 3.72592 13.9178 3.9424 13.6507 3.9424H13.4895C13.2224 3.9424 13.0059 3.72592 13.0059 3.45881V0.772168C13.0059 0.505098 13.2224 0.288574 13.4895 0.288574H13.6507Z" fill="#585A60"/>
<path d="M3.57565 3.45881V0.772168C3.57565 0.57709 3.69144 0.409434 3.85776 0.332949C3.79636 0.304746 3.72827 0.288574 3.65628 0.288574H3.49507C3.228 0.288574 3.01147 0.505098 3.01147 0.772168V3.45881C3.01147 3.72592 3.228 3.9424 3.49507 3.9424H3.65628C3.72831 3.9424 3.7964 3.92623 3.85776 3.89803C3.69144 3.82158 3.57565 3.65389 3.57565 3.45881Z" fill="#414356"/>
<path d="M8.57285 3.45881V0.772168C8.57285 0.57709 8.68863 0.409434 8.85496 0.332949C8.79355 0.304746 8.72546 0.288574 8.65347 0.288574H8.49226C8.22519 0.288574 8.00867 0.505098 8.00867 0.772168V3.45881C8.00867 3.72592 8.22519 3.9424 8.49226 3.9424H8.65347C8.7255 3.9424 8.79359 3.92623 8.85496 3.89803C8.68863 3.82158 8.57285 3.65389 8.57285 3.45881Z" fill="#414356"/>
<path d="M13.5699 3.45881V0.772168C13.5699 0.57709 13.6857 0.409434 13.852 0.332949C13.7906 0.304746 13.7225 0.288574 13.6505 0.288574H13.4893C13.2223 0.288574 13.0057 0.505098 13.0057 0.772168V3.45881C13.0057 3.72592 13.2223 3.9424 13.4893 3.9424H13.6505C13.7226 3.9424 13.7907 3.92623 13.852 3.89803C13.6857 3.82158 13.5699 3.65389 13.5699 3.45881Z" fill="#414356"/>
<path d="M6.58616 9.69434H5.59108C5.42417 9.69434 5.28882 9.82965 5.28882 9.9966C5.28882 10.1635 5.42417 10.2989 5.59108 10.2989H6.58616C6.75312 10.2989 6.88843 10.1636 6.88843 9.9966C6.88843 9.82969 6.75312 9.69434 6.58616 9.69434Z" fill="#585A60"/>
<path d="M9.35251 9.69434H8.35732C8.1904 9.69434 8.05505 9.82965 8.05505 9.9966C8.05505 10.1635 8.1904 10.2989 8.35732 10.2989H9.35251C9.51947 10.2989 9.65478 10.1636 9.65478 9.9966C9.65474 9.82969 9.51947 9.69434 9.35251 9.69434Z" fill="#585A60"/>
<path d="M12.1189 9.69434H11.1237C10.9568 9.69434 10.8214 9.82965 10.8214 9.9966C10.8214 10.1635 10.9568 10.2989 11.1237 10.2989H12.1189C12.2858 10.2989 12.4212 10.1636 12.4212 9.9966C12.4212 9.82969 12.2858 9.69434 12.1189 9.69434Z" fill="#585A60"/>
<path d="M14.8852 9.69434H13.89C13.7231 9.69434 13.5878 9.82965 13.5878 9.9966C13.5878 10.1635 13.7231 10.2989 13.89 10.2989H14.8852C15.0522 10.2989 15.1875 10.1636 15.1875 9.9966C15.1875 9.82969 15.0522 9.69434 14.8852 9.69434Z" fill="#585A60"/>
<path d="M3.8198 12.1299H2.8246C2.65769 12.1299 2.52234 12.2652 2.52234 12.4321C2.52234 12.5991 2.65769 12.7344 2.8246 12.7344H3.8198C3.98675 12.7344 4.12207 12.5991 4.12207 12.4321C4.12203 12.2652 3.98675 12.1299 3.8198 12.1299Z" fill="#585A60"/>
<path d="M6.58616 12.1299H5.59108C5.42417 12.1299 5.28882 12.2652 5.28882 12.4321C5.28882 12.5991 5.42417 12.7344 5.59108 12.7344H6.58616C6.75312 12.7344 6.88843 12.5991 6.88843 12.4321C6.88843 12.2652 6.75312 12.1299 6.58616 12.1299Z" fill="#585A60"/>
<path d="M9.35251 12.1299H8.35732C8.1904 12.1299 8.05505 12.2652 8.05505 12.4321C8.05505 12.5991 8.1904 12.7344 8.35732 12.7344H9.35251C9.51947 12.7344 9.65478 12.5991 9.65478 12.4321C9.65474 12.2652 9.51947 12.1299 9.35251 12.1299Z" fill="#585A60"/>
<path d="M12.1189 12.1299H11.1237C10.9568 12.1299 10.8214 12.2652 10.8214 12.4321C10.8214 12.5991 10.9568 12.7344 11.1237 12.7344H12.1189C12.2858 12.7344 12.4212 12.5991 12.4212 12.4321C12.4212 12.2652 12.2858 12.1299 12.1189 12.1299Z" fill="#585A60"/>
<path d="M14.8852 12.1299H13.89C13.7231 12.1299 13.5878 12.2652 13.5878 12.4321C13.5878 12.5991 13.7231 12.7344 13.89 12.7344H14.8852C15.0522 12.7344 15.1875 12.5991 15.1875 12.4321C15.1875 12.2652 15.0522 12.1299 14.8852 12.1299Z" fill="#585A60"/>
<path d="M3.8198 14.5649H2.8246C2.65769 14.5649 2.52234 14.7003 2.52234 14.8672C2.52234 15.0342 2.65769 15.1695 2.8246 15.1695H3.8198C3.98675 15.1695 4.12207 15.0342 4.12207 14.8672C4.12207 14.7003 3.98675 14.5649 3.8198 14.5649Z" fill="#585A60"/>
<path d="M6.58616 14.5649H5.59108C5.42417 14.5649 5.28882 14.7003 5.28882 14.8672C5.28882 15.0342 5.42417 15.1695 5.59108 15.1695H6.58616C6.75312 15.1695 6.88843 15.0342 6.88843 14.8672C6.88843 14.7003 6.75312 14.5649 6.58616 14.5649Z" fill="#585A60"/>
<path d="M9.35251 14.5649H8.35732C8.1904 14.5649 8.05505 14.7003 8.05505 14.8672C8.05505 15.0342 8.1904 15.1695 8.35732 15.1695H9.35251C9.51947 15.1695 9.65478 15.0342 9.65478 14.8672C9.65478 14.7003 9.51947 14.5649 9.35251 14.5649Z" fill="#585A60"/>
<path d="M12.1189 14.5649H11.1237C10.9568 14.5649 10.8214 14.7003 10.8214 14.8672C10.8214 15.0342 10.9568 15.1695 11.1237 15.1695H12.1189C12.2858 15.1695 12.4212 15.0342 12.4212 14.8672C12.4212 14.7003 12.2858 14.5649 12.1189 14.5649Z" fill="#585A60"/>
<path d="M14.8852 14.5649H13.89C13.7231 14.5649 13.5878 14.7003 13.5878 14.8672C13.5878 15.0342 13.7231 15.1695 13.89 15.1695H14.8852C15.0522 15.1695 15.1875 15.0342 15.1875 14.8672C15.1875 14.7003 15.0522 14.5649 14.8852 14.5649Z" fill="#585A60"/>
<path d="M3.8198 16.9995H2.8246C2.65769 16.9995 2.52234 17.1348 2.52234 17.3018C2.52234 17.4687 2.65769 17.604 2.8246 17.604H3.8198C3.98675 17.604 4.12207 17.4687 4.12207 17.3018C4.12203 17.1348 3.98675 16.9995 3.8198 16.9995Z" fill="#585A60"/>
<path d="M6.58616 16.9995H5.59108C5.42417 16.9995 5.28882 17.1348 5.28882 17.3018C5.28882 17.4687 5.42417 17.604 5.59108 17.604H6.58616C6.75312 17.604 6.88843 17.4687 6.88843 17.3018C6.88843 17.1348 6.75312 16.9995 6.58616 16.9995Z" fill="#585A60"/>
<path d="M9.35251 16.9995H8.35732C8.1904 16.9995 8.05505 17.1348 8.05505 17.3018C8.05505 17.4687 8.1904 17.604 8.35732 17.604H9.35251C9.51947 17.604 9.65478 17.4687 9.65478 17.3018C9.65474 17.1348 9.51947 16.9995 9.35251 16.9995Z" fill="#585A60"/>
<path d="M12.1189 16.9995H11.1237C10.9568 16.9995 10.8214 17.1348 10.8214 17.3018C10.8214 17.4687 10.9568 17.604 11.1237 17.604H12.1189C12.2858 17.604 12.4212 17.4687 12.4212 17.3018C12.4212 17.1348 12.2858 16.9995 12.1189 16.9995Z" fill="#585A60"/>
</g>
<defs>
<clipPath id="clip0_226_11860">
<rect width="20" height="20" fill="white"/>
</clipPath>
</defs>
</svg>
