<svg width="25" height="24" viewBox="0 0 25 24" fill="none" xmlns="http://www.w3.org/2000/svg">
<path d="M20 7.76123V9.74986C20 12.6449 17.645 14.9999 14.75 14.9999H5.8175C6.17525 17.1272 8.021 18.7499 10.25 18.7499H20.75L23 20.9999V11.9999C23 10.0412 21.7468 8.37961 20 7.76123Z" fill="#FAB400"/>
<path d="M7.3175 15H5.8175C6.17525 17.1274 8.021 18.75 10.25 18.75H11.75C9.521 18.75 7.67525 17.1274 7.3175 15Z" fill="#DC9600"/>
<path d="M6.5 3C4.01487 3 2 5.01487 2 7.5V16.5L4.25 14.25H14.75C17.2351 14.25 19.25 12.2351 19.25 9.75V7.5C19.25 5.01487 17.2351 3 14.75 3H6.5Z" fill="#FA6450"/>
<path d="M3.5 7.5C3.5 5.01487 5.51487 3 8 3H6.5C4.01487 3 2 5.01487 2 7.5V16.5L3.5 15V7.5Z" fill="#DC4632"/>
<path d="M8.75 9.75C8.33562 9.75 8 9.41438 8 9C8 8.58562 8.33562 8.25 8.75 8.25C9.16438 8.25 9.5 8.58562 9.5 9C9.5 9.41438 9.16438 9.75 8.75 9.75Z" fill="#F0F0F0"/>
<path d="M11 9.75C10.5856 9.75 10.25 9.41438 10.25 9C10.25 8.58562 10.5856 8.25 11 8.25C11.4144 8.25 11.75 8.58562 11.75 9C11.75 9.41438 11.4144 9.75 11 9.75Z" fill="#F0F0F0"/>
<path d="M13.25 9.75C12.8356 9.75 12.5 9.41438 12.5 9C12.5 8.58562 12.8356 8.25 13.25 8.25C13.6644 8.25 14 8.58562 14 9C14 9.41438 13.6644 9.75 13.25 9.75Z" fill="#F0F0F0"/>
</svg>
