<svg width="26" height="26" viewBox="0 0 26 26" fill="none" xmlns="http://www.w3.org/2000/svg">
<path d="M26 8.4873C26 7.95687 25.7893 7.44816 25.4142 7.07309C25.0391 6.69802 24.5304 6.4873 24 6.4873H20V2.4873C20 1.95687 19.7893 1.44816 19.4142 1.07309C19.0391 0.698018 18.5304 0.487305 18 0.487305H2C1.46957 0.487305 0.960859 0.698018 0.585786 1.07309C0.210714 1.44816 0 1.95687 0 2.4873V18.4873C0.000587141 18.6754 0.054234 18.8596 0.154778 19.0186C0.255321 19.1776 0.398683 19.305 0.568392 19.3862C0.738102 19.4674 0.927276 19.4991 1.11418 19.4776C1.30108 19.4562 1.47814 19.3824 1.625 19.2648L6 15.7373V19.4873C6 20.0177 6.21071 20.5264 6.58579 20.9015C6.96086 21.2766 7.46957 21.4873 8 21.4873H19.6987L24.375 25.2648C24.5519 25.4079 24.7724 25.4864 25 25.4873C25.2652 25.4873 25.5196 25.3819 25.7071 25.1944C25.8946 25.0069 26 24.7525 26 24.4873V8.4873ZM20.6812 19.7098C20.5043 19.5667 20.2838 19.4882 20.0562 19.4873H8V15.4873H18C18.5304 15.4873 19.0391 15.2766 19.4142 14.9015C19.7893 14.5264 20 14.0177 20 13.4873V8.4873H24V22.3936L20.6812 19.7098Z" fill="#5169F6"/>
</svg>
