<svg width="58" height="16" viewBox="0 0 58 16" fill="none" xmlns="http://www.w3.org/2000/svg">
<path d="M3.6386 10.2132C3.6386 8.4201 4.61461 7.58045 6.18008 7.58045C8.1321 7.58045 8.85848 8.78301 8.85848 10.2132C8.85848 11.6429 8.1321 12.8454 6.18008 12.8454C4.61461 12.8454 3.6386 12.0283 3.6386 10.2132ZM0.234375 0V10.2132C0.234375 13.4129 2.36731 16 6.22572 16C10.2199 16 12.2627 13.254 12.2627 10.2583C12.2627 6.99045 9.83449 4.42587 6.61172 4.42587C5.31789 4.42587 4.34188 4.90205 3.6386 5.67407V0H0.234375Z" fill="#1C1C22"/>
<path d="M19.7551 12.8455C17.9169 12.8455 17.1454 11.6654 17.1454 10.2132C17.1454 8.7605 17.9169 7.58048 19.7551 7.58048C21.5939 7.58048 22.3653 8.7605 22.3653 10.2132C22.3653 11.6654 21.5939 12.8455 19.7551 12.8455ZM19.7551 16C23.5453 16 25.7695 13.4129 25.7695 10.2132C25.7695 7.01302 23.5453 4.4259 19.7551 4.4259C15.9654 4.4259 13.7412 7.01302 13.7412 10.2132C13.7412 13.4129 15.9654 16 19.7551 16Z" fill="#1C1C22"/>
<path d="M27.2471 0.113281V16H30.6513V0.113281H27.2471Z" fill="#1C1C22"/>
<path d="M40.753 10.2132C40.753 12.0283 39.777 12.8454 38.1884 12.8454C36.2595 12.8454 35.5331 11.6429 35.5331 10.2132C35.5331 8.78301 36.2595 7.58045 38.1884 7.58045C39.777 7.58045 40.753 8.4201 40.753 10.2132ZM40.753 5.67407C40.0492 4.90205 39.0506 4.42587 37.7117 4.42587C34.5797 4.42587 32.1289 6.99045 32.1289 10.2583C32.1289 13.254 34.1711 16 38.1659 16C42.0238 16 44.1572 13.4129 44.1572 10.2132V0H40.753V5.67407Z" fill="#1C1C22"/>
<path d="M54.2598 10.2132C54.2598 12.0283 53.2838 12.8454 51.6953 12.8454C49.7663 12.8454 49.04 11.6429 49.04 10.2132C49.04 8.78301 49.7663 7.58045 51.6953 7.58045C53.2838 7.58045 54.2598 8.4201 54.2598 10.2132ZM54.2598 5.67407C53.556 4.90205 52.5575 4.42587 51.2185 4.42587C48.0865 4.42587 45.6357 6.99045 45.6357 10.2583C45.6357 13.254 47.6779 16 51.6727 16C55.5306 16 57.6641 13.4129 57.6641 10.2132V0H54.2598V5.67407Z" fill="#1C1C22"/>
</svg>
