<svg width="48" height="49" viewBox="0 0 48 49" fill="none" xmlns="http://www.w3.org/2000/svg">
<g clip-path="url(#clip0_999_15246)">
<path d="M43.4602 35.6923C44.518 33.5419 45.0453 31.1694 44.9977 28.7734C44.9501 26.3775 44.3291 24.0278 43.1868 21.9211C42.0444 19.8145 40.4139 18.0122 38.4318 16.6652C36.4497 15.3183 34.1737 14.4659 31.7944 14.1794C31.0054 12.3399 29.8561 10.677 28.4144 9.28863C26.9727 7.90023 25.2677 6.81442 23.3998 6.09516C21.532 5.37591 19.5391 5.03777 17.5385 5.10067C15.5379 5.16356 13.5702 5.62622 11.7512 6.46138C9.93225 7.29654 8.29881 8.48731 6.94716 9.96354C5.59552 11.4398 4.55299 13.1716 3.88102 15.057C3.20905 16.9423 2.92121 18.9431 3.03448 20.9415C3.14775 22.9398 3.65982 24.8953 4.54054 26.6926L3.10435 31.7212C2.97619 32.171 2.97057 32.647 3.08808 33.0998C3.20559 33.5525 3.44196 33.9657 3.77272 34.2964C4.10348 34.6272 4.51662 34.8635 4.96939 34.9811C5.42215 35.0986 5.8981 35.093 6.34796 34.9648L11.3765 33.5286C12.8939 34.2736 14.5261 34.7572 16.2044 34.9592C17.0045 36.8335 18.178 38.5252 19.6536 39.9309C21.1291 41.3366 22.8756 42.4269 24.7865 43.1352C26.6974 43.8436 28.7326 44.155 30.7679 44.0507C32.8031 43.9463 34.7958 43.4283 36.6242 42.5282L41.6528 43.9644C42.1026 44.0926 42.5786 44.0982 43.0314 43.9807C43.4841 43.8632 43.8973 43.6268 44.228 43.2961C44.5588 42.9653 44.7951 42.5522 44.9127 42.0994C45.0302 41.6466 45.0246 41.1707 44.8964 40.7208L43.4602 35.6923ZM40.4116 35.9435L41.8271 40.8952L36.8755 39.4796C36.4982 39.3735 36.0944 39.4193 35.7505 39.6071C32.9856 41.1114 29.7406 41.4701 26.7138 40.6061C23.6871 39.7421 21.1204 37.7245 19.5662 34.9873C21.6201 34.7734 23.6076 34.1373 25.404 33.119C27.2005 32.1007 28.7671 30.7221 30.0056 29.0697C31.2441 27.4173 32.1277 25.5268 32.6011 23.5168C33.0744 21.5068 33.1273 19.4207 32.7563 17.3893C34.5536 17.8128 36.2289 18.6455 37.6518 19.8225C39.0747 20.9994 40.2068 22.4889 40.9599 24.1749C41.713 25.8609 42.0669 27.698 41.9939 29.5431C41.9209 31.3883 41.423 33.1917 40.5391 34.8129C40.3497 35.1584 40.3039 35.5645 40.4116 35.9435Z" fill="#5169F6"/>
</g>
<defs>
<clipPath id="clip0_999_15246">
<rect width="47.998" height="47.998" fill="white" transform="translate(0 0.569336)"/>
</clipPath>
</defs>
</svg>
