<svg width="27" height="26" viewBox="0 0 27 26" fill="none" xmlns="http://www.w3.org/2000/svg">
<g clip-path="url(#clip0_226_11815)">
<path d="M21.4437 23.3528H12.2068V21.8293H21.4437C22.0232 21.8293 22.4946 21.3579 22.4946 20.7784C22.4946 20.1989 22.0232 19.7274 21.4437 19.7274H18.7805C17.361 19.7274 16.2062 18.5726 16.2062 17.1531C16.2062 15.7336 17.361 14.5787 18.7805 14.5787H23.9256C24.5051 14.5787 24.9765 14.1073 24.9765 13.5278C24.9765 12.9483 24.5051 12.4768 23.9256 12.4768H6.29218C4.87264 12.4768 3.71777 11.322 3.71777 9.90248C3.71777 8.48299 4.87264 7.32812 6.29218 7.32812H18.2939L17.5322 8.85156H6.29218C5.71266 8.85156 5.24121 9.32302 5.24121 9.90248C5.24121 10.4819 5.71266 10.9534 6.29218 10.9534H23.9256C25.3451 10.9534 26.5 12.1083 26.5 13.5278C26.5 14.9473 25.3451 16.1022 23.9256 16.1022H18.7805C18.2009 16.1022 17.7295 16.5736 17.7295 17.1531C17.7295 17.7325 18.201 18.204 18.7805 18.204H21.4437C22.8632 18.204 24.018 19.3589 24.018 20.7784C24.0181 22.1979 22.8632 23.3528 21.4437 23.3528Z" fill="#D7D8EA"/>
<path d="M19.0557 8.85158H17.5322V5.3693L19.0557 0.761719V8.85158Z" fill="#006094"/>
<path d="M0.5 19.374V26.0003H6.58243L8.34509 24.2507L6.58243 19.374H0.5Z" fill="#006094"/>
<path d="M6.5824 19.375H12.6648V26.0013H6.5824V19.375Z" fill="#002C60"/>
<path d="M3.98781 14.6779L3.56592 14.8882V17.8514H5.08936V15.8535C5.58986 15.6575 6.08614 15.5595 6.58237 15.5595L7.34409 14.7477L6.58237 14.0342C5.71554 14.0342 4.84865 14.2488 3.98781 14.6779Z" fill="#FFA74C"/>
<path d="M8.07542 17.8509H9.59885V14.8877L9.17696 14.6774C8.31612 14.2482 7.44928 14.0337 6.5824 14.0337V15.559C7.07863 15.559 7.57487 15.657 8.07542 15.853V17.8509Z" fill="#FE8A52"/>
<path d="M5.82068 19.374V22.9136H6.5824L7.34412 19.374H5.82068Z" fill="#FFA74C"/>
<path d="M6.5824 19.374H7.34412V22.9136H6.5824V19.374Z" fill="#FE8A52"/>
<path d="M0.5 16.9785V19.3734L6.58243 21.3206L8.09063 18.7637L6.58243 16.9785H0.5Z" fill="#009DB6"/>
<path d="M12.6648 16.9785H6.5824V21.3206L12.6648 19.3734V16.9785Z" fill="#006094"/>
<path d="M17.5322 0V5.3693H19.0557L20.3132 2.72299L19.0557 0L17.5322 0Z" fill="#FD7359"/>
<path d="M23.6938 2.68465L24.9615 0H19.0557V5.3693H24.9615L23.6938 2.68465Z" fill="#FA5A5E"/>
</g>
<defs>
<clipPath id="clip0_226_11815">
<rect width="26" height="26" fill="white" transform="translate(0.5)"/>
</clipPath>
</defs>
</svg>
